<svg width="273" height="87" viewBox="0 0 273 87" fill="none" xmlns="http://www.w3.org/2000/svg">
<path d="M2.2059 28.1532L5.39556 32.5358C8.60387 36.7546 15.0765 45.7656 21.4185 52.1962C27.7791 58.8726 34.1025 62.9685 40.631 54.3671C46.9731 45.7656 53.3151 23.6476 59.8436 23.7705C66.167 23.6476 72.5276 45.7656 78.8697 52.1962C85.3422 58.8726 91.7402 49.8616 98.0822 54.3671C104.536 58.8726 110.953 76.0755 117.295 69.6449C123.711 62.9685 130.165 32.6587 136.507 34.7066C142.905 36.7546 149.378 52.74 155.72 70.0658C162.081 87.5554 168.404 87.5554 174.933 76.6193C182.161 66.1513 185.69 62.0565 193.464 56.291C201.664 51.0002 206.829 58.8726 213.171 49.9844C219.644 41.2601 226.042 15.0462 232.384 10.6635C238.838 6.44473 245.254 23.6476 251.596 25.9823C258.013 28.1532 264.467 15.0462 267.638 8.49269L270.809 1.93921" stroke="#8DDD2B" stroke-width="3.82353" stroke-linecap="round"/>
</svg>
